# xmcd CD database file
#
# Track frame offsets:
#	150
#	23778
#	32584
#	52855
#	69065
#	93320
#	115831
#	137014
#	159612
#	178646
#	199351
#
# Disc length: 2783 seconds
#
# Revision: 10
# Processed by: cddbd v1.5.2PL0 Copyright (c) Steve Scherf et al.
# Submitted via: CDex 1.70beta3
#
DISCID=880add0b
DTITLE=原由美・沼倉愛美・今井麻美 - HEART AND SOUL -THE IDOLM@STER STATION!!!-
DYEAR=2011
DGENRE=Vocal
TTITLE0=「曲作りまーす！」の巻
TTITLE1=HEART AND SOUL -Instrumental
TTITLE2=「Aメロ作りまーす！」の巻
TTITLE3=It's ALRIGHT!
TTITLE4=「Bメロ作りまーす！」の巻
TTITLE5=Crescent Maze
TTITLE6=「サビ作りまーす！」の巻
TTITLE7=SUPERSTAR
TTITLE8=「ライブコーナー」の巻
TTITLE9=1,2,3
TTITLE10=「ライブが終わって」の巻
EXTD=YEAR: 2011
EXTT0=
EXTT1=
EXTT2=
EXTT3=
EXTT4=
EXTT5=
EXTT6=
EXTT7=
EXTT8=
EXTT9=
EXTT10=
PLAYORDER=
